<svg xmlns="http://www.w3.org/2000/svg" width="73.718" height="68.153"><g data-name="Group 436"><g data-name="Group 427" fill="none" stroke="#646464" stroke-linecap="round" stroke-linejoin="round" stroke-width="2"><path data-name="Path 7009" d="M58.24 6.766a24.64 24.64 0 002.208-3.752c.809-1.721 1.864-2.16 2.724-1.947.8.2 1.448.933 1.114 2.47-.694 3.191-1.645 6.716-1.274 7.132.2.224 1.969.261 3.808.249 1.584-.011 3.221-.06 3.949-.06 2.2 0 2.517 2.649.964 3.739 1.118.943.644 3.1-.7 3.746 1.045 1 .641 3.4-.926 3.745a2.315 2.315 0 01-2.092 3.754h-4.687"/><path data-name="Path 7010" d="M49.517 16.599a1.308 1.308 0 11-1.308-1.309 1.308 1.308 0 011.308 1.309"/><path data-name="Path 7012" d="M53.233 12.244a31.477 31.477 0 005.007-5.477"/><path data-name="Path 7013" d="M48.741 25.999h-2.516l-2.147-12.55h7.649s.6-.419 1.505-1.2"/><path data-name="Line 171" d="M51.799 21.287v-7.838"/><path data-name="Path 7015" d="M56.982 25.353c-2.505-.641-5.254-1.683-5.254-1.683V26h-2.992"/><path data-name="Path 7016" d="M63.328 25.843h-3.415a13.223 13.223 0 01-2.931-.49"/></g><path data-name="Path 7017" d="M4.376 20.143A32.573 32.573 0 0151.239 7.255" fill="none" stroke="#646464" stroke-linecap="round" stroke-linejoin="round" stroke-width="2"/><g data-name="Group 430"><g data-name="Group 428"><path data-name="Line 172" fill="none" stroke="#646464" stroke-linecap="round" stroke-linejoin="round" stroke-width="2" d="M33.557 7.26V2.287"/></g><g data-name="Group 429"><path data-name="Line 173" fill="none" stroke="#646464" stroke-linecap="round" stroke-linejoin="round" stroke-width="2" d="M60.893 34.597h4.973"/></g></g><g data-name="Group 432"><g data-name="Group 431"><path data-name="Line 174" fill="none" stroke="#646464" stroke-linecap="round" stroke-linejoin="round" stroke-width="2" d="M10.71 11.75l3.517 3.517"/></g></g><path data-name="Path 7020" d="M6.22 52.285a32.621 32.621 0 01-2.905-29.769q.485-1.21 1.062-2.373" fill="none" stroke="#949494" stroke-linecap="round" stroke-linejoin="round" stroke-width="2"/><path data-name="Line 175" fill="none" stroke="#949494" stroke-linecap="round" stroke-linejoin="round" stroke-width="2" d="M1.054 34.597h4.973"/><path data-name="Line 176" fill="none" stroke="#8250fa" stroke-linecap="round" stroke-linejoin="round" stroke-width="2" d="M56.578 57.618l-3.579-3.579"/><path data-name="Path 7023" d="M46.635 64.42A32.591 32.591 0 016.221 52.285" fill="none" stroke="#c382fa" stroke-linecap="round" stroke-linejoin="round" stroke-width="2"/><path data-name="Line 177" fill="none" stroke="#c382fa" stroke-linecap="round" stroke-linejoin="round" stroke-width="2" d="M33.557 67.109v-4.973"/><path data-name="Line 178" fill="none" stroke="#c382fa" stroke-linecap="round" stroke-linejoin="round" stroke-width="2" d="M10.561 57.594l3.517-3.517"/><path data-name="Path 7024" d="M44.534 45.389L33.557 34.596V15.267" fill="none" stroke="#646464" stroke-linecap="round" stroke-linejoin="round" stroke-width="2"/><path data-name="Path 7025" d="M62.501 49.516a32.692 32.692 0 01-15.867 14.9" fill="none" stroke="#8250fa" stroke-linecap="round" stroke-linejoin="round" stroke-width="2"/><path data-name="Path 7026" d="M65.84 30.364a32.847 32.847 0 01.273 4.233 32.418 32.418 0 01-3.612 14.919" fill="none" stroke="#646464" stroke-linecap="round" stroke-linejoin="round" stroke-width="2"/></g></svg>