<svg xmlns="http://www.w3.org/2000/svg" width="56.962" height="75.525"><g data-name="Group 434" fill="none" stroke-linecap="round" stroke-linejoin="round" stroke-width="2"><path data-name="Path 6995" d="M6.04 12.287A28.1 28.1 0 0128.481 1" stroke="#515150"/><path data-name="Path 6996" d="M1 27.117a24.983 24.983 0 015.042-14.9" stroke="#80807f"/><path data-name="Path 6997" d="M46.091 28.608c0 10.055-7.96 18.434-17.6 18.434s-17.6-8.17-17.6-18.434c0-10.055 7.96-18.433 17.6-18.433s17.6 8.169 17.6 18.433z" stroke="#515150"/><path data-name="Path 6998" d="M28.481 1c14.9 0 27.481 11.994 27.481 26.19 0 6.234-1.961 11.354-5.485 17.029" stroke="#515150"/><path data-name="Path 6999" d="M34.94 65.494a369.31 369.31 0 00-5.21 7.251l-1.249 1.78-1.249-1.785c-4.324-6.177-8.148-11.217-11.522-15.664C6.536 44.988 1 37.694 1 27.194" stroke="#c382fa"/><path data-name="Path 7000" d="M41.159 57.206c-1.925 2.535-4 5.265-6.219 8.284" stroke="#8250fa"/><path data-name="Path 7001" d="M50.478 44.219c-.807 1.3-1.7 2.631-2.665 4.01-1.924 2.744-4.155 5.684-6.653 8.976" stroke="#515150"/></g></svg>