<svg xmlns="http://www.w3.org/2000/svg" width="75.886" height="71.138"><g data-name="Group 435"><g data-name="Group 425"><path data-name="Line 163" fill="none" stroke="#515150" stroke-linecap="round" stroke-linejoin="round" stroke-width="2" d="M28.445 8.586h6.256"/><path data-name="Line 164" fill="none" stroke="#515150" stroke-linecap="round" stroke-linejoin="round" stroke-width="2" d="M41.185 8.586h12.512"/><path data-name="Line 165" fill="none" stroke="#80807f" stroke-linecap="round" stroke-linejoin="round" stroke-width="2" d="M22.189 8.586h6.256"/><path data-name="Line 166" fill="none" stroke="#515150" stroke-linecap="round" stroke-linejoin="round" stroke-width="2" d="M28.445 24.967h46.441"/><path data-name="Line 167" fill="none" stroke="#80807f" stroke-linecap="round" stroke-linejoin="round" stroke-width="2" d="M18.133 24.967h10.312"/><path data-name="Line 168" fill="none" stroke="#c382fa" stroke-linecap="round" stroke-linejoin="round" stroke-width="2" d="M1 24.967h17.133"/><g data-name="Group 424"><g data-name="Group 421"><path data-name="Path 7002" d="M18.947 16.171a3.216 3.216 0 01-3.242-3.189V4.189a3.242 3.242 0 016.484 0v8.793a3.216 3.216 0 01-3.242 3.189z" fill="none" stroke="#80807f" stroke-linecap="round" stroke-linejoin="round" stroke-width="2"/></g><g data-name="Group 422"><path data-name="Path 7003" d="M37.942 16.171a3.216 3.216 0 01-3.242-3.189V4.189a3.242 3.242 0 016.484 0v8.793a3.216 3.216 0 01-3.242 3.189z" fill="none" stroke="#515150" stroke-linecap="round" stroke-linejoin="round" stroke-width="2"/></g><g data-name="Group 423"><path data-name="Path 7004" d="M56.938 16.171a3.216 3.216 0 01-3.242-3.189V4.189a3.242 3.242 0 016.484 0v8.793a3.216 3.216 0 01-3.242 3.189z" fill="none" stroke="#515150" stroke-linecap="round" stroke-linejoin="round" stroke-width="2"/></g></g><path data-name="Path 7005" d="M1 19.215a10.719 10.719 0 0110.807-10.63h3.9" fill="none" stroke="#80807f" stroke-linecap="round" stroke-linejoin="round" stroke-width="2"/><path data-name="Line 169" fill="none" stroke="#8250fa" stroke-linecap="round" stroke-linejoin="round" stroke-width="2" d="M1 35.569V19.215"/><path data-name="Path 7006" d="M11.807 70.138a10.719 10.719 0 01-10.806-10.63V35.569" fill="none" stroke="#8250fa" stroke-linecap="round" stroke-linejoin="round" stroke-width="2"/><path data-name="Line 170" fill="none" stroke="#515150" stroke-linecap="round" stroke-linejoin="round" stroke-width="2" d="M64.079 70.138H11.806"/><path data-name="Path 7007" d="M60.18 8.585h3.9a10.719 10.719 0 0110.806 10.63v40.293a10.719 10.719 0 01-10.806 10.63" fill="none" stroke="#515150" stroke-linecap="round" stroke-linejoin="round" stroke-width="2"/></g><path data-name="Path 7008" d="M54.933 35.984L34.689 59.12 20.952 43.937" fill="none" stroke="#515150" stroke-linecap="round" stroke-linejoin="round" stroke-width="2"/></g></svg>