<svg xmlns="http://www.w3.org/2000/svg" width="67.303" height="102.831"><g data-name="Group 55"><path data-name="Path 16" d="M63.093 28.44a29.459 29.459 0 00-58.883 0l-.053 42.9a14.8 14.8 0 0111.229 13.775h36.532a14.8 14.8 0 0111.231-13.77l-.054-42.9z" fill="#fc40d7"/></g><path data-name="Path 17" d="M34.042 57.1A27.2 27.2 0 017.7 36.612v21.421h51.949v-19A27.2 27.2 0 0134.042 57.1z" fill="#fff"/><g data-name="Group 56" fill="#fff"><path data-name="Path 18" d="M10.362 60.706h5.639v1.857h-3.459v1.911h2.934v1.858h-2.934v1.911h3.486V70.1h-5.666z"/><path data-name="Path 19" d="M17.707 68.821v-1.493h2.181v.915h2.409v-1.911h-3.311l-1.279-1.275v-3.069l1.279-1.278h4.2l1.279 1.292v1.48h-2.167v-.915h-2.409v1.911H23.2l1.265 1.279v3.055l-1.279 1.292h-4.2z"/><path data-name="Path 20" d="M26.349 60.706h5.3l1.278 1.278v3.634l-1.278 1.279h-3.123v3.2h-2.177zm4.4 4.351v-2.49h-2.221v2.49z"/><path data-name="Path 21" d="M34.135 68.821v-6.85l1.265-1.265h4.2l1.293 1.292v6.81L39.6 70.1h-4.185zm4.576-.578v-5.68h-2.409v5.68z"/><path data-name="Path 22" d="M42.773 60.706h5.289l1.292 1.278v3.073l-1.292 1.211 1.736 3.836h-2.5l-1.736-3.836h-.619v3.836h-2.167zm4.4 3.768v-1.911h-2.234v1.911z"/><path data-name="Path 23" d="M56.942 60.706v1.857h-2.046V70.1h-2.167v-7.537H50.67v-1.857z"/></g><g data-name="Group 57" fill="#fff"><path data-name="Path 24" d="M21.212 80.691V73.84l1.265-1.265h4.213l1.279 1.278v1.925h-2.181v-1.346h-2.395v5.68h2.395v-1.225h-1.076V77.03h3.257v3.647l-1.292 1.292h-4.186z"/><path data-name="Path 25" d="M29.849 72.575h5.289l1.292 1.278v3.069l-1.292 1.211 1.736 3.836h-2.5l-1.736-3.836h-.619v3.836h-2.17zm4.4 3.768v-1.911h-2.234v1.911z"/><path data-name="Path 26" d="M40.277 72.575h2.867l2.947 9.394h-2.288l-.538-1.844h-3.109l-.538 1.844h-2.275zm2.423 5.693l-.983-3.3-1 3.3z"/></g><g data-name="Group 58"><path data-name="Rectangle 67" fill="#fc40d7" d="M10.362 87.41h46.58v10.083h-46.58z"/></g><g data-name="Group 59" fill="#fff"><path data-name="Path 27" d="M15.914 93.904h-.572v-.95h.737l.179-1.006h-.661v-.95h.826l.172-.95h1.109l-.165.95h.909l.172-.95h1.115l-.172.95h.428v.95h-.593l-.179 1.006h.516v.95h-.681l-.165.951h-1.116l.165-.951h-.909l-.172.951h-1.116zm2.19-.95l.185-1.006h-.915l-.18 1.006z"/><path data-name="Path 28" d="M20.782 90.048h2.885v.95h-1.776v.978h1.467v.95h-1.467v1.931h-1.109z"/><path data-name="Path 29" d="M24.287 94.2v-3.505l.647-.647h2.149l.661.661v3.484l-.661.662h-2.141zm2.342-.3v-2.906h-1.233V93.9z"/><path data-name="Path 30" d="M28.57 94.2v-3.505l.647-.647h2.149l.661.661v3.484l-.661.662h-2.142zm2.341-.3v-2.906h-1.233V93.9z"/><path data-name="Path 31" d="M35.821 90.048v.95h-1.047v3.859h-1.108V91h-1.054v-.95z"/><path data-name="Path 32" d="M36.549 90.048h2.8l.654.654v1.329l-.461.42.461.42v1.322l-.654.662h-2.8zm2.341 1.928v-.978h-1.231v.978zm0 1.928v-.978h-1.231v.978z"/><path data-name="Path 33" d="M41.949 90.048h1.467l1.508 4.807h-1.175l-.276-.944h-1.591l-.275.944h-1.158zm1.24 2.913l-.5-1.687-.509 1.687z"/><path data-name="Path 34" d="M48.34 93.904v.951h-2.9v-4.807h1.11v3.856z"/><path data-name="Path 35" d="M51.961 93.904v.951h-2.9v-4.807h1.108v3.856z"/></g><path data-name="Path 36" d="M63.149 88.498l1.077 2.889 3.08.131-2.415 1.917.827 2.97-2.569-1.7-2.569 1.7.827-2.97-2.415-1.917 3.08-.131z" fill="#fff"/><path data-name="Path 37" d="M4.157 88.498l1.077 2.889 3.08.131-2.415 1.917.827 2.97-2.569-1.7-2.569 1.7.827-2.97L0 91.518l3.08-.131z" fill="#fff"/><path data-name="Rectangle 68" fill="#fff" d="M4.157 85.715v-1.189h58.99v1.189z"/><path data-name="Rectangle 69" fill="#fff" d="M4.157 100.458v-1.189h58.99v1.189z"/><path data-name="Rectangle 70" fill="#fff" d="M15.386 102.831v-1.189h36.531v1.189z"/><g data-name="Group 74"><g data-name="Group 60"><path data-name="Path 38" d="M33.649 55.398A25.678 25.678 0 1159.327 29.72a25.707 25.707 0 01-25.678 25.678zm0-50.067A24.389 24.389 0 1058.037 29.72 24.416 24.416 0 0033.649 5.331z" fill="#fff"/></g><g data-name="Group 61"><path data-name="Path 39" d="M33.375 42.926a46.437 46.437 0 01-5.718-.343l-.358-.045-.149-.328c-.14-.308-3.43-7.572-3.794-10.978l-.036-.334.254-.221c.266-.231 6.549-5.679 9.709-7.208l.332-.16.306.2c.274.182 6.735 4.487 9.318 6.627l.309.256-.093.39c-.085.356-2.093 8.749-3.857 11.5l-.159.249-.293.042a44.36 44.36 0 01-5.771.353zm-5.2-1.58a48.223 48.223 0 0010.487 0c1.409-2.468 3.034-8.819 3.44-10.462-2.366-1.894-7.3-5.22-8.584-6.084-2.741 1.465-7.654 5.616-8.838 6.63.451 2.918 2.869 8.505 3.497 9.916z" fill="#fff"/></g><g data-name="Group 62"><path data-name="Path 40" d="M23.763 31.765l-8.311-3.245-.084-.316a20.816 20.816 0 01.224-10.527l.036-.112.073-.093c.15-.188 3.715-4.637 8.252-6.621l.135-.06.147.006a23.327 23.327 0 018.957 2.708l.325.167.691 10.335-1.288.086-.641-9.6a22.8 22.8 0 00-7.949-2.394 24.193 24.193 0 00-7.545 6.09 19.764 19.764 0 00-.243 9.376l7.69 3z" fill="#fff"/></g><g data-name="Group 63"><path data-name="Path 41" d="M14.527 18.581a11.49 11.49 0 01-2.983-.315l.366-1.237a15.58 15.58 0 004.243.2l.107 1.285c-.06.007-.799.067-1.733.067z" fill="#fff"/></g><g data-name="Group 64"><path data-name="Path 42" d="M24.855 11.485l-1.287-.087a21.169 21.169 0 01.3-2.262 7.962 7.962 0 011.374-3.585l.982.837c-.913 1.069-1.297 4.043-1.369 5.097z" fill="#fff"/></g><g data-name="Group 65"><path data-name="Path 43" d="M42.993 31.257l-.331-1.246a61.8 61.8 0 008.02-3.579 26.983 26.983 0 00-.719-9.113 29.988 29.988 0 00-8.647-6.083 37.98 37.98 0 00-8.1 3.4l-.64-1.12a37.894 37.894 0 018.66-3.586l.2-.045.189.079a30.627 30.627 0 019.382 6.584l.107.113.044.148a27.581 27.581 0 01.761 10.119l-.042.335-.3.156c-.243.132-6.077 3.175-8.584 3.838z" fill="#fff"/></g><g data-name="Group 66"><path data-name="Path 44" d="M42.024 10.585l-1.289-.042a10.792 10.792 0 00-1.507-4.788l1.136-.611a11.731 11.731 0 011.66 5.441z" fill="#fff"/></g><g data-name="Group 67"><path data-name="Path 45" d="M55.09 17.629a9.663 9.663 0 00-4.33-.028l-.436-1.214a10.527 10.527 0 014.992-.028z" fill="#fff"/></g><g data-name="Group 68"><path data-name="Path 46" d="M57.585 35.178c-1.8-3.323-6.689-7.806-6.738-7.851l.87-.952c.207.189 5.1 4.676 7 8.188z" fill="#fff"/></g><g data-name="Group 69"><path data-name="Path 47" d="M44.159 47.504l-.231-.193a63.56 63.56 0 01-5.368-4.954l.989-.828a58.564 58.564 0 004.975 4.6 48.2 48.2 0 009.437-2.743l.518 1.181a48.658 48.658 0 01-10.023 2.886z" fill="#fff"/></g><g data-name="Group 70"><path data-name="Path 48" d="M40.814 54.277l-.961-.86c1.955-2.185 3.873-6.8 3.892-6.847l1.192.492c-.081.195-2.02 4.865-4.123 7.215z" fill="#fff"/></g><g data-name="Group 71"><path data-name="Path 49" d="M27.874 54.667a19.329 19.329 0 01-5.1-7.138l-.136-.367.263-.291a59.764 59.764 0 004.291-5.274l1.09.691a54.406 54.406 0 01-4.158 5.151 18.544 18.544 0 004.581 6.242z" fill="#fff"/></g><g data-name="Group 72"><path data-name="Path 50" d="M23.349 47.948a36.753 36.753 0 01-9.22-1.7l.434-1.215a36 36 0 008.846 1.628z" fill="#fff"/></g><g data-name="Group 73"><path data-name="Path 51" d="M9.774 35.582l-1.086-.7a29.421 29.421 0 016.939-7.38l.729 1.064a28.622 28.622 0 00-6.582 7.016z" fill="#fff"/></g></g></svg>