<svg version="1.1" id="Warstwa_1" xmlns="http://www.w3.org/2000/svg" x="0" y="0" viewBox="0 0 5645.62 1914.17" xml:space="preserve"><style>.st0{fill:#fff}</style><path class="st0" d="M5600.46 1089.08c-79.61-.06-159.23-.32-238.84.09-9.82.05-15.45-3.08-21.08-10.84-131.93-181.83-264.11-363.47-396.26-545.15-2.7-3.72-5.48-7.38-8.8-11.85-2.22 4.34-1.32 8.28-1.32 11.98-.05 152.14-.05 304.28-.05 456.43 0 30.3.02 60.59-.02 90.89-.01 8.17-.11 8.27-8.09 8.27-89.62.03-179.24.03-268.86 0-7.65 0-7.66-.13-7.82-7.56-.03-1.66-.01-3.33-.01-4.99 0-334.25-.01-668.49.03-1002.74 0-14.46-1.98-12.72 12.69-12.73 79.96-.05 159.92.11 239.87-.21 8.46-.03 13.81 2.3 19.15 9.11 128 163.18 256.26 326.16 384.47 489.17 2.99 3.8 5.99 7.58 10.78 10.71v-10.54c0-162.13-.01-324.26.02-486.39 0-13.52-1.59-11.85 11.46-11.85 88.29-.04 176.57-.01 264.86-.07 2.59 0 5.31.9 7.81-.6.01 342.95.01 685.91.01 1028.87zm-4576.8-514.47c0-167.13-.01-334.26.02-501.38 0-14.32-1.57-12.36 11.98-12.36 269.54-.03 539.07-.03 808.61-.03h3c9.93-.01 9.8-.96 9.8 9.73-.02 74.24-.01 148.49-.01 222.73 0 2 0 4-.04 5.99-.05 2.41-1.35 3.64-3.73 3.68-3 .05-6 .05-8.99.05-175.58 0-351.16-.01-526.74.03-14.06 0-12.05-1.93-12.08 12.13-.09 43.95-.05 87.89-.02 131.84.01 10.58-1.07 9.46 9.73 9.46 157.59.02 315.18-.01 472.77.04 14.48 0 12.76-2.08 12.77 12.61.05 67.92.05 135.83 0 203.75-.01 12.32 1.37 10.7-10.46 10.7-157.92.03-315.85.02-473.77.02-11.05 0-11.06 0-11.06 11.11v141.83c0 2 .1 4-.01 5.99-.19 3.24.91 5.01 4.49 4.78 2.65-.18 5.33-.03 7.99-.03 175.58 0 351.16-.02 526.74.03 14.18 0 12.37-2 12.38 11.89.06 72.58.05 145.16.01 217.73-.01 13.83 1.31 11.94-11.41 11.94-270.2.03-540.4.03-810.6-.01-12.84 0-11.33 2.05-11.33-11.88-.05-167.44-.04-334.9-.04-502.37zm1836.51-355.46c-2.76 3.03-6.56 4.53-9.98 6.51-68.55 39.58-137.2 78.97-205.61 118.79-6.47 3.77-10.53 3.58-16.58-.71-59.2-42.04-125.26-59.15-197.29-51.32-123.87 13.47-224.53 107.67-247.42 230.49-28.59 153.45 71.66 301.51 225.05 330.6 93.84 17.79 176.54-6.81 247.94-70.06 5.17-4.58 7.29-9.3 7.15-16.27-.45-21.96-.14-43.94-.18-65.91-.02-10.62 1.27-9.75-9.49-9.75-56.64-.02-113.27-.01-169.91-.01-9.99 0-19.99-.16-29.98.07-4.31.1-6.23-1.39-5.69-5.72.04-.33 0-.67 0-1 0-71.24-.02-142.49.02-213.73 0-7.02.16-7.08 7.14-7.18 6-.09 11.99-.02 17.99-.02h426.77c2.33 0 4.7.28 6.99-.05 5.65-.81 6.57 2.06 6.49 6.9-.23 14.31-.08 28.63-.08 42.94 0 112.86-.02 225.71.06 338.57 0 5.79-.85 10.83-4.27 15.87-83.42 122.76-197.24 201.31-342.97 230.27-263.37 52.34-522.78-98.36-609.46-352.17-23.55-68.96-32.26-139.94-26.61-212.43 16.45-211.36 153.39-384.64 340.01-456.92 75.42-29.21 153.71-40.77 234.15-34.08 137.84 11.48 254.32 68.24 349.49 168.59 1.83 1.93 3.59 3.92 5.33 5.94.44.49.63 1.17.94 1.79zM80.34 574.78V74.41c0-2-.03-4 .01-5.99.15-7.43.16-7.55 7.81-7.55 90.62-.03 181.24-.03 271.86 0 7.51 0 7.52.15 7.67 7.81.04 2.33.01 4.66.01 6.99v759.05c0 12.53 0 12.53 12.72 12.53h516.73c11.36 0 11.36 0 11.37 11.76v217.73c0 2.33-.14 4.67.03 6.99.28 3.78-1.09 5.6-5.1 5.22-2.31-.22-4.66-.04-6.99-.04H92.88c-12.52 0-12.52 0-12.52-12.76-.02-167.12-.02-334.25-.02-501.37zm2961.35-.29c0-167.09-.02-334.19.03-501.28 0-13.76-2.07-12.34 12.03-12.34 86.94-.04 173.88-.02 260.82-.02 1 0 2-.01 3 0 8.63.09 8.64.09 8.74 8.73.02 1.33 0 2.66 0 3.99 0 334.19.01 668.38-.02 1002.57 0 15.24 1.48 12.72-12.57 12.73-86.94.08-173.88.06-260.82.02-12.61-.01-11.18 1.46-11.19-11.12-.03-167.76-.02-335.52-.02-503.28zm897.27 531.81c-123.63-7.39-307.7-78.07-415.89-265.83-99.75-173.1-89.72-383.92 4.81-538.55 3.06-.3 4.42 2.35 6.23 4.01C3593.96 360.91 3653.7 416 3713.7 470.8c5.02 4.59 5.69 8.18 3.59 14.47-50.94 152.95 34.04 312.19 181.92 360.13 6.95 2.25 9.05 5.69 9.83 12.46 5.55 47.91 11.54 95.77 17.34 143.66 4.2 34.66 8.33 69.34 12.58 104.78zm96.88.05c4.91-39.72 9.78-78.65 14.54-117.6 5-40.93 9.88-81.88 14.85-122.82.68-5.6.17-12.03 2.83-16.51 2.78-4.67 9.99-4.22 15.17-6.24 101.67-39.73 164.06-112.82 185.09-219.93 9.21-46.9 4.67-93.43-10.99-138.67-1.87-5.39-1.28-8.71 3.14-12.74 60.47-55.24 120.74-110.71 181.06-166.12 1.45-1.33 2.96-2.59 4.48-3.91 79.52 122.82 111.86 322.52 23.92 504.26-100.87 208.47-296.86 291.73-434.09 300.28zm380.17-849.97c-2.23 2.61-5.56 3.44-8.45 4.86-71 34.88-142.04 69.68-213.07 104.49-8.9 4.36-8.9 4.34-16.72-2.64-43.95-39.22-95.12-63.51-153.53-70.58-86.42-10.47-162.55 13.78-227.93 71.36-.75.66-1.61 1.25-2.19 2.04-2.93 3.98-6.06 3.67-10.26 1.57-24.07-12.06-48.28-23.83-72.45-35.7-48.33-23.73-96.67-47.47-145-71.2-2.38-1.17-4.75-2.34-8.51-4.2 31.4-42.32 67.79-78.78 109.59-109.9 80.38-59.83 170.58-94.77 270.32-103.91 214.72-19.7 389.82 89.24 478.2 213.81z"/><path d="M3642.52 345.86c3.59.46 6.54 2.7 9.67 4.3 66.33 34.05 132.71 68.01 199.74 100.67 31.71 15.45 63.54 30.63 95.93 44.66 25.91 11.22 51.62 11.7 77.46.52 15.88-6.87 31.71-13.87 47.32-21.32 84.72-40.43 168.31-83.11 251.98-125.63 3.24-1.65 6.5-3.24 10.75-3.98-1.37 1.39-2.67 2.86-4.11 4.17-60.86 55.8-121.77 111.55-182.6 167.38-23.55 21.61-46.47 43.92-70.5 64.98-22.11 19.37-32.71 43.14-35.27 72.22-3.23 36.73-8.75 73.26-13.21 109.88-3.62 29.7-7.09 59.41-10.72 89.11-3.67 30.02-7.5 60.02-11.2 90.04-3.57 29.03-7.08 58.07-10.6 87.11-2.92 24.09-5.81 48.18-8.84 73.35-2.36-3.53-2.69-6.73-3.08-9.99-5.88-49.17-11.85-98.34-17.71-147.52-4.96-41.59-9.7-83.2-14.74-124.78-4.96-40.91-10.15-81.8-15.28-122.69-2.61-20.77-5.44-41.52-7.98-62.31-2.29-18.71-10.85-33.82-24.72-46.48-31.73-28.94-63.17-58.21-94.77-87.3-39.69-36.52-79.43-72.99-119.16-109.47a21182.11 21182.11 0 00-44.18-40.49c-1.71-1.56-3.67-2.86-5.51-4.27.44-.71.89-1.44 1.33-2.16z" fill="#4c8bca"/><path class="st0" d="M2071.96 1460.51c55.73 1.53 102.6 21.58 135.44 67.95 58 81.9 26.47 207.59-85.35 241.37-58.82 17.77-114.56 8.49-162.19-31.81-42.49-35.96-58.88-83.33-52.72-138.39 7.89-70.47 64.63-127.84 139.87-137.37 8.28-1.05 16.54-1.66 24.95-1.75zm78.1 161.54c.31-23.2-5.98-42.41-19.65-58.97-33.31-40.34-98.62-36.69-126.08 6.97-18.56 29.5-17.63 71.68 2.71 99.96 19.17 26.67 45.94 36.64 77.75 32.01 29.97-4.36 49.79-22.21 60.21-50.42 3.71-10.05 5.45-20.54 5.06-29.55zm769.43-26.28c1.45 96.42-50.83 163.64-130.76 178.63-40.22 7.55-78.9 2.73-115.31-16.28-56.59-29.55-88.06-89.36-82.58-152.96 6.2-71.93 62.39-132.63 140.02-142.82 33.47-4.39 66.02-1.06 96.52 13.33 60.18 28.39 90.4 76.78 92.11 120.1zM2761.51 1703c21.48-.17 43.54-10.41 58.88-33.22 20.47-30.44 19.19-75.1-3.43-103.98-20.15-25.73-47.14-34.95-78.91-29.03-29.48 5.49-48.36 23.88-57.88 51.83-5.57 16.37-6.06 33.25-2.51 50.22 7.99 38.08 39.83 64.22 83.85 64.18zm-1471.31-53.69c2.55 27.35 25.19 51.54 53.71 57 29.3 5.61 56.21.04 80.18-18.13 3.18-2.41 6.44-4.8 9.23-7.62 3.07-3.11 5.54-2.85 8.29.16 1.12 1.22 2.46 2.23 3.71 3.34 11.47 10.14 23.02 20.21 34.4 30.46 7.5 6.74 9.12 4.66.4 14.19-17.18 18.78-37.69 32.66-62.05 40.29-43.27 13.53-86.21 12.51-127.54-6.59-52.23-24.13-79.93-66.57-86.25-122.97-3.86-34.41 1.42-67.65 17.58-98.74 29.4-56.56 87.64-86.6 152.96-78.91 60.9 7.17 104.78 46.87 121.05 110.86 5.62 22.12 7.17 44.61 5.92 67.33-.47 8.54-.45 8.62-9 8.62-40.64.03-81.27.01-121.91.01-23.65 0-47.3-.04-70.95.04-3.23 0-6.58-.76-9.73.66zm127.19-55.45c-3.28-37.85-28.25-63.29-62.48-63.68-35.24-.4-62.24 25.64-66.12 63.76 9.15.97 120.46.91 128.6-.08zm235.98-85.92c5.83-6.33 10.21-11.2 14.72-15.94 35.59-37.36 86.2-37.51 121.6-21.74 29.05 12.93 44.58 36.83 51.88 66.76 2.76 11.32 4.1 22.9 4.1 34.6 0 63.56.03 127.12.02 190.68 0 8.33-.07 8.39-8.82 8.4-22.98.03-45.96.03-68.93 0-9.54-.01-8.67.91-8.68-8.45-.01-52.58-.01-105.15-.01-157.73 0-9.67-.66-19.27-3.24-28.66-5.67-20.67-18.62-33.25-40.26-36.14-28.16-3.76-56.65 8.17-61.79 46.91-.87 6.57-1 13.28-1.01 19.92-.08 50.58-.04 101.16-.04 151.74 0 2-.24 4.03.04 5.98.83 5.66-2.01 6.56-6.95 6.52-24.31-.2-48.62-.05-72.93-.12-6.68-.02-6.78-.18-6.8-7.45-.05-21.3-.02-42.59-.02-63.89V1478.7c0-2 .19-4.02-.04-5.99-.54-4.66 1.1-6.43 6.06-6.39 24.97.21 49.95.18 74.93.02 4.31-.03 5.87 1.39 5.77 5.71-.22 9.31-.08 18.63-.05 27.95.01 1.99.22 3.95.45 7.94zm-772.75 64.63v-185.75c0-1.66.01-3.33 0-4.99-.04-9.09-.62-8.89 8.51-8.86 16.32.05 32.65.01 48.97.01 8.33 0 16.66.13 24.98-.06 3.75-.09 5.62 1.05 5.3 5.04-.19 2.31-.03 4.66-.03 6.99v292.61c0 1.66-.01 3.33 0 4.99.08 8.5.08 8.58 8.76 8.58 58.63.02 117.26.01 175.9.01 2 0 4-.03 6 .01 7.51.14 7.63.15 7.65 7.76.06 21.64.06 43.28 0 64.91-.02 6.73-.14 6.85-7.25 6.86-90.28.03-180.56.03-270.84 0-7.85 0-7.93-.12-7.93-8.37-.03-63.24-.02-126.49-.02-189.74zm1374.53-106.13c28.65 0 56.94.13 85.23-.12 5.06-.04 5.95 2.93 7.13 6.48 7.97 23.95 15.99 47.89 24.01 71.82 13.18 39.36 26.36 78.73 39.6 118.08.47 1.4.18 3.28 2.65 4.36 2.28-2.78 2.84-6.4 3.95-9.69 20.55-60.72 41.07-121.45 61.58-182.18 3.57-10.58 1.93-8.67 12.28-8.71 26.29-.12 52.58-.04 78.85-.04 1.44 3.63-.78 6.12-1.78 8.68-37.66 96.55-75.42 193.07-113.17 289.58-3.23 8.25-3.25 8.27-11.98 8.28-19.98.02-39.96.03-59.95 0-11.98-.02-9.62.91-13.51-9.02-27.04-68.96-53.93-137.98-80.87-206.99-10.63-27.23-21.27-54.46-31.93-81.68-.94-2.44-2.36-4.73-2.09-8.85zM124.32 1717.59c0 15.72.04 30.69-.02 45.65-.03 7.33-.12 7.4-7.76 7.44-10.32.07-20.65-.1-30.97.07-3.79.06-5.59-1.13-5.18-5.11.2-1.98.03-3.99.03-5.99 0-130.77-.02-261.54.03-392.31 0-12.51-1.89-11.02 11.07-11.13 7.99-.07 15.98-.04 23.98 0 8.75.04 8.79.07 8.82 8.45.04 11.65.01 23.29.01 34.94v135.61c4.33-5.53 7.07-9.12 9.9-12.64 18.63-23.13 41.22-40.56 70.54-47.83 61.85-15.35 127.17 14.66 155.33 73.15 24.37 50.63 24.21 102.63-.67 153-31.34 63.47-105.93 92.31-170.12 67.61-23.66-9.1-42.36-24.63-58.02-44.21-1.86-2.3-2.93-5.69-6.97-6.7zm207.95-93.41c.35-10.74-1.01-22.31-4.04-33.58-10.45-38.84-33.68-66.37-73.25-76.85-38.59-10.22-72.38.64-100.43 28.64-18.3 18.26-28.4 40.85-31.09 66.44-4.08 38.89 5.94 73.36 34.95 100.65 54.54 51.29 146.25 31.31 168.27-44.99 3.7-12.87 5.69-25.94 5.59-40.31zm237.21 97.18c10-25.86 19.37-50 28.68-74.16 20.78-53.93 41.47-107.9 62.34-161.8 3.5-9.05 1.34-8.47 11.8-8.49 12.27-.02 24.54 0 36.82 0 .51 4.08-1.51 6.9-2.73 9.9-39.48 97.26-78.97 194.52-118.54 291.75-6.4 15.72-13.83 30.91-23.43 45.02-20.5 30.12-49.09 42.36-84.96 39.59-16.11-1.24-31.5-4.91-46.23-11.4-6.58-2.9-6.62-3.01-3.99-9.27 3.85-9.17 7.83-18.28 11.69-27.26 3.3-1.03 5.36 1.12 7.64 2.13 15.03 6.61 30.8 8.21 46.92 6.81 11.03-.96 20.28-6.07 27.95-14 10.36-10.71 16.72-23.88 22.87-37.2 1.85-4.01-.34-6.99-1.81-10.23-15.02-32.95-30.03-65.91-45.08-98.85-26.92-58.93-53.88-117.84-80.76-176.79-1.34-2.94-3.32-5.74-3.42-10.18 14.67 0 29.16.05 43.66-.04 2.82-.02 4.23 1.36 5.19 3.7.76 1.84 1.56 3.67 2.36 5.5 32.68 74.91 65.36 149.82 98.06 224.72 1.29 3 2.79 5.95 4.97 10.55z"/></svg>