<svg xmlns="http://www.w3.org/2000/svg" width="1155" height="315"><g fill="#fff" fill-rule="evenodd"><path data-name="Path 7086" d="M361.79 140h-68.58a18.5 18.5 0 000 37h68.58a18.5 18.5 0 000-37m171.674 18.265L594 82.675c6.246-7.51 5-19.482-2.505-25.92A18.85 18.85 0 00580.25 53a16.8 16.8 0 00-13.936 6.97l-64.278 80.071h-46.6v-68.63a18.218 18.218 0 10-36.435 0v173.354a18.218 18.218 0 1036.436 0v-68.09h45.883l64.288 79.355a17.512 17.512 0 0013.926 6.97 17.107 17.107 0 0011.245-3.755 20.282 20.282 0 006.973-11.972A16.739 16.739 0 00594 234.041l-60.537-75.777zm127.336-26.88c0-27.8 20.222-42.33 40.454-42.33h38.486c20.232 0 40.454 14.53 40.454 42.33v53.8c0 27.8-20.222 42.33-40.454 42.33h-38.488c-20.232 0-40.454-14.531-40.454-42.33zM739.738 53h-38.486c-22.733 0-42.246 8.79-56.748 25.293C631.794 92.823 625 112.375 625 132.1v53.8c0 19.551 6.98 39.28 19.5 53.8 14.5 16.5 34.015 25.293 56.748 25.293h38.486c22.733 0 42.246-8.79 56.748-25.293C809.2 225.187 816 205.635 816 185.906V132.1c0-19.551-6.99-39.28-19.514-53.811C781.984 61.789 761.94 53 739.738 53zm393.589 25.26C1118.815 61.777 1099.289 53 1076.542 53h-15.22c-22.748 0-42.274 8.778-56.785 25.26-.72.718-1.251 1.25-1.97 1.97-.71-.72-1.252-1.252-1.97-1.97C986.084 61.777 966.568 53 943.811 53h-14.5c-22.747 0-42.273 8.778-56.784 25.26C859.807 92.77 853 112.285 853 131.99v113.745a18.27 18.27 0 0036.539 0V131.99c0-27.762 20.245-42.264 40.49-42.264h15.221c20.245 0 40.48 14.5 40.48 42.264v113.745a18.27 18.27 0 0036.54 0V131.99c0-27.762 20.245-42.264 40.48-42.264h15.23c20.236 0 40.48 14.5 40.48 42.264v113.745a18.27 18.27 0 0036.54 0V131.99c-1.438-20.235-8.955-39.761-21.673-53.73"/><path data-name="Path 7087" d="M137.855 176.964L8.036 47.145a26.945 26.945 0 010-38.392l.707-.717a26.945 26.945 0 0138.392 0l129.829 129.819a26.945 26.945 0 010 38.392l-.717.717a26.945 26.945 0 01-38.392 0"/><path data-name="Path 7088" d="M267.855 306.964L138.036 177.145a26.945 26.945 0 010-38.392l.717-.717a26.945 26.945 0 0138.392 0l129.819 129.829a26.933 26.933 0 010 38.382l-.717.717a26.945 26.945 0 01-38.392 0"/><path data-name="Path 7089" d="M138.83 177.96L55.04 94.17a26.96 26.96 0 010-38.412l.708-.718a26.96 26.96 0 0138.412 0l83.8 83.79a26.96 26.96 0 010 38.412l-.718.718a26.959 26.959 0 01-38.411 0"/><path data-name="Path 7090" d="M217.3 256.55l-79.213-79.159a27.071 27.071 0 010-38.592l.721-.72a27.115 27.115 0 0138.619 0l78.492 78.437a27.072 27.072 0 010 38.593l-.721.72c-10.59 10.771-27.84 10.771-37.9.721"/><path data-name="Path 7091" d="M267.941 9.052L9.051 267.766a27 27 0 000 38.466l.72.709a26.979 26.979 0 0038.465 0L306.948 48.236a27 27 0 000-38.466l-.718-.718a26.785 26.785 0 00-38.289 0"/><path data-name="Path 7092" d="M211.786 64.528L44.048 232.68a27.1 27.1 0 000 38.54l.708.72a26.955 26.955 0 0038.448 0l167.748-168.152a27.1 27.1 0 000-38.54l-.718-.72c-10.73-10.037-28.258-10.037-38.448 0"/><path data-name="Path 7093" d="M197.3 157.884l34.64 34.639a27.013 27.013 0 010 38.488l-.718.72a27.007 27.007 0 01-38.483 0l-34.637-34.643-49.849 49.855a27 27 0 01-38.483 0l-.719-.709a27.027 27.027 0 010-38.5l49.851-49.853-41.612-41.62a27.013 27.013 0 010-38.488l.718-.718a26.992 26.992 0 0138.473 0l41.62 41.625 25.868-25.87a27.006 27.006 0 0138.483 0l.719.72a27 27 0 010 38.478L197.3 157.884z"/></g></svg>