<svg xmlns="http://www.w3.org/2000/svg" width="56.962" height="75.525" viewBox="0 0 56.962 75.525">
  <g id="Group_434" data-name="Group 434" transform="translate(-63.119 -51)">
    <path id="Path_6995" data-name="Path 6995" d="M70.7,63.287A28.1,28.1,0,0,1,93.141,52" transform="translate(-1.541)" fill="none" stroke="#515150" stroke-linecap="round" stroke-linejoin="round" stroke-width="2"/>
    <path id="Path_6996" data-name="Path 6996" d="M64.119,81.545a24.983,24.983,0,0,1,5.042-14.9" transform="translate(0 -3.428)" fill="none" stroke="#80807f" stroke-linecap="round" stroke-linejoin="round" stroke-width="2"/>
    <path id="Path_6997" data-name="Path 6997" d="M112.236,82.412c0,10.055-7.96,18.434-17.6,18.434s-17.6-8.17-17.6-18.434c0-10.055,7.96-18.433,17.6-18.433S112.236,72.148,112.236,82.412Z" transform="translate(-3.026 -2.804)" fill="none" stroke="#515150" stroke-linecap="round" stroke-linejoin="round" stroke-width="2"/>
    <path id="Path_6998" data-name="Path 6998" d="M100,52c14.9,0,27.481,11.994,27.481,26.19,0,6.234-1.961,11.354-5.485,17.029" transform="translate(-8.4)" fill="none" stroke="#515150" stroke-linecap="round" stroke-linejoin="round" stroke-width="2"/>
    <path id="Path_6999" data-name="Path 6999" d="M98.059,124.5c-1.653,2.245-3.389,4.649-5.21,7.251L91.6,133.531l-1.249-1.785c-4.324-6.177-8.148-11.217-11.522-15.664C69.655,103.994,64.119,96.7,64.119,86.2" transform="translate(0 -8.006)" fill="none" stroke="#c382fa" stroke-linecap="round" stroke-linejoin="round" stroke-width="2"/>
    <path id="Path_7000" data-name="Path 7000" d="M114.652,125.386c-1.925,2.535-4,5.265-6.219,8.284" transform="translate(-10.374 -17.18)" fill="none" stroke="#8250fa" stroke-linecap="round" stroke-linejoin="round" stroke-width="2"/>
    <path id="Path_7001" data-name="Path 7001" d="M125.872,108.43c-.807,1.3-1.7,2.631-2.665,4.01-1.924,2.744-4.155,5.684-6.653,8.976" transform="translate(-12.275 -13.211)" fill="none" stroke="#515150" stroke-linecap="round" stroke-linejoin="round" stroke-width="2"/>
  </g>
</svg>
