<svg xmlns="http://www.w3.org/2000/svg" width="73.718" height="68.153" viewBox="0 0 73.718 68.153">
  <g id="Group_436" data-name="Group 436" transform="translate(-54.969 -58.368)">
    <g id="ico_f_RGB_like" transform="translate(99.047 59.386)">
      <g id="Group_427" data-name="Group 427" transform="translate(0)">
        <path id="Path_7009" data-name="Path 7009" d="M126.272,65.134a24.64,24.64,0,0,0,2.208-3.752c.809-1.721,1.864-2.16,2.724-1.947.8.2,1.448.933,1.114,2.47-.694,3.191-1.645,6.716-1.274,7.132.2.224,1.969.261,3.808.249,1.584-.011,3.221-.06,3.949-.06,2.2,0,2.517,2.649.964,3.739,1.118.943.644,3.1-.7,3.746,1.045,1,.641,3.4-.926,3.745a2.315,2.315,0,0,1-2.092,3.754H131.36" transform="translate(-112.11 -59.386)" fill="none" stroke="#646464" stroke-linecap="round" stroke-linejoin="round" stroke-width="2"/>
        <path id="Path_7010" data-name="Path 7010" d="M114.961,78.224a1.308,1.308,0,1,1-1.308-1.309,1.308,1.308,0,0,1,1.308,1.309" transform="translate(-109.522 -62.643)" fill="none" stroke="#646464" stroke-linecap="round" stroke-linejoin="round" stroke-width="2"/>
        <path id="Path_7011" data-name="Path 7011" d="M126.272,66.446" transform="translate(-112.11 -60.698)" fill="none" stroke="#646464" stroke-linecap="round" stroke-linejoin="round" stroke-width="2"/>
        <path id="Path_7012" data-name="Path 7012" d="M120.122,71.924a31.477,31.477,0,0,0,5.007-5.477" transform="translate(-110.967 -60.698)" fill="none" stroke="#646464" stroke-linecap="round" stroke-linejoin="round" stroke-width="2"/>
        <path id="Path_7013" data-name="Path 7013" d="M113.541,86.929h-2.516l-2.147-12.55h7.649s.6-.419,1.505-1.2" transform="translate(-108.878 -61.948)" fill="none" stroke="#646464" stroke-linecap="round" stroke-linejoin="round" stroke-width="2"/>
        <path id="Path_7014" data-name="Path 7014" d="M126.272,66.446" transform="translate(-112.11 -60.698)" fill="none" stroke="#646464" stroke-linecap="round" stroke-linejoin="round" stroke-width="2"/>
        <line id="Line_171" data-name="Line 171" y1="7.838" transform="translate(7.721 12.431)" fill="none" stroke="#646464" stroke-linecap="round" stroke-linejoin="round" stroke-width="2"/>
        <path id="Path_7015" data-name="Path 7015" d="M122.846,88.89c-2.505-.641-5.254-1.683-5.254-1.683v2.33H114.6" transform="translate(-109.942 -64.555)" fill="none" stroke="#646464" stroke-linecap="round" stroke-linejoin="round" stroke-width="2"/>
        <path id="Path_7016" data-name="Path 7016" d="M131.073,89.765h-3.415a13.223,13.223,0,0,1-2.931-.49" transform="translate(-111.823 -64.94)" fill="none" stroke="#646464" stroke-linecap="round" stroke-linejoin="round" stroke-width="2"/>
      </g>
    </g>
    <g id="ico_f_RGB_zegar" transform="translate(55.969 60.408)">
      <path id="Path_7017" data-name="Path 7017" d="M60.116,78.744a32.573,32.573,0,0,1,46.863-12.888" transform="translate(-56.74 -60.641)" fill="none" stroke="#646464" stroke-linecap="round" stroke-linejoin="round" stroke-width="2"/>
      <path id="Path_7018" data-name="Path 7018" d="M95.956,100.628" transform="translate(-63.399 -68.071)" fill="none" stroke="#fa0064" stroke-linecap="round" stroke-linejoin="round" stroke-width="2"/>
      <path id="Path_7019" data-name="Path 7019" d="M95.956,100.628" transform="translate(-63.399 -68.071)" fill="none" stroke="#fa0064" stroke-linecap="round" stroke-linejoin="round" stroke-width="2"/>
      <g id="Group_430" data-name="Group 430" transform="translate(32.557 0.247)">
        <g id="Group_428" data-name="Group 428">
          <line id="Line_172" data-name="Line 172" y1="4.973" fill="none" stroke="#646464" stroke-linecap="round" stroke-linejoin="round" stroke-width="2"/>
        </g>
        <g id="Group_429" data-name="Group 429" transform="translate(27.336 32.31)">
          <line id="Line_173" data-name="Line 173" x2="4.973" fill="none" stroke="#646464" stroke-linecap="round" stroke-linejoin="round" stroke-width="2"/>
        </g>
      </g>
      <g id="Group_432" data-name="Group 432" transform="translate(9.71 9.71)">
        <g id="Group_431" data-name="Group 431">
          <line id="Line_174" data-name="Line 174" x2="3.517" y2="3.517" fill="none" stroke="#646464" stroke-linecap="round" stroke-linejoin="round" stroke-width="2"/>
        </g>
      </g>
      <path id="Path_7020" data-name="Path 7020" d="M61.189,115.018a32.621,32.621,0,0,1-2.905-29.769q.485-1.21,1.062-2.373" transform="translate(-55.969 -64.773)" fill="none" stroke="#949494" stroke-linecap="round" stroke-linejoin="round" stroke-width="2"/>
      <path id="Path_7021" data-name="Path 7021" d="M95.956,100.628" transform="translate(-63.399 -68.071)" fill="none" stroke="#b40064" stroke-linecap="round" stroke-linejoin="round" stroke-width="2"/>
      <path id="Path_7022" data-name="Path 7022" d="M95.956,100.628" transform="translate(-63.399 -68.071)" fill="none" stroke="#b40064" stroke-linecap="round" stroke-linejoin="round" stroke-width="2"/>
      <line id="Line_175" data-name="Line 175" x2="4.973" transform="translate(0.054 32.557)" fill="none" stroke="#949494" stroke-linecap="round" stroke-linejoin="round" stroke-width="2"/>
      <line id="Line_176" data-name="Line 176" x1="3.579" y1="3.579" transform="translate(51.999 51.999)" fill="none" stroke="#8250fa" stroke-linecap="round" stroke-linejoin="round" stroke-width="2"/>
      <path id="Path_7023" data-name="Path 7023" d="M102.795,134.488a32.591,32.591,0,0,1-40.414-12.135" transform="translate(-57.16 -72.108)" fill="none" stroke="#c382fa" stroke-linecap="round" stroke-linejoin="round" stroke-width="2"/>
      <line id="Line_177" data-name="Line 177" y1="4.973" transform="translate(32.557 60.096)" fill="none" stroke="#c382fa" stroke-linecap="round" stroke-linejoin="round" stroke-width="2"/>
      <line id="Line_178" data-name="Line 178" y1="3.517" x2="3.517" transform="translate(9.561 52.037)" fill="none" stroke="#c382fa" stroke-linecap="round" stroke-linejoin="round" stroke-width="2"/>
      <path id="Path_7024" data-name="Path 7024" d="M106.933,107.009,95.956,96.216V76.887" transform="translate(-63.399 -63.66)" fill="none" stroke="#646464" stroke-linecap="round" stroke-linejoin="round" stroke-width="2"/>
      <path id="Path_7025" data-name="Path 7025" d="M127.885,118.952a32.692,32.692,0,0,1-15.867,14.9" transform="translate(-66.384 -71.476)" fill="none" stroke="#8250fa" stroke-linecap="round" stroke-linejoin="round" stroke-width="2"/>
      <path id="Path_7026" data-name="Path 7026" d="M134.845,95.429a32.847,32.847,0,0,1,.273,4.233,32.418,32.418,0,0,1-3.612,14.919" transform="translate(-70.005 -67.105)" fill="none" stroke="#646464" stroke-linecap="round" stroke-linejoin="round" stroke-width="2"/>
    </g>
  </g>
</svg>
