<svg xmlns="http://www.w3.org/2000/svg" width="116.542" height="116.446" viewBox="0 0 116.542 116.446">
  <g id="krok-1" transform="translate(1.5 1.517)">
    <text id="_1" data-name="1" transform="translate(56.014 69.464)" fill="#8250fa" font-size="44" font-family="Nunito-Light, Nunito" font-weight="300"><tspan x="-13.2" y="0">1</tspan></text>
    <g id="ico_f_RGB_check_lista" data-name="ico_f_RGB_check lista" transform="translate(0 0)">
      <g id="Group_16" data-name="Group 16" transform="translate(0 0)">
        <g id="Group_15" data-name="Group 15">
          <path id="Path_14" data-name="Path 14" d="M128.856,66.7A56.847,56.847,0,0,1,87.8,172.656" transform="translate(-50.06 -62.584)" fill="none" stroke="#949494" stroke-linecap="round" stroke-linejoin="round" stroke-width="3"/>
          <path id="Path_15" data-name="Path 15" d="M68.4,93.475A56.057,56.057,0,0,1,84.507,75.157a57.794,57.794,0,0,1,55.426-6.948" transform="translate(-61.294 -64.093)" fill="none" stroke="#c382fa" stroke-linecap="round" stroke-linejoin="round" stroke-width="3"/>
          <path id="Path_16" data-name="Path 16" d="M71.006,137.494A57.794,57.794,0,0,1,63.9,110.018,56.689,56.689,0,0,1,71.006,82.7" transform="translate(-63.9 -53.319)" fill="none" stroke="#8250fa" stroke-linecap="round" stroke-linejoin="round" stroke-width="3"/>
          <path id="Path_17" data-name="Path 17" d="M98.876,143.3A57.163,57.163,0,0,1,68.4,117.4" transform="translate(-61.294 -33.224)" fill="none" stroke="#646464" stroke-linecap="round" stroke-linejoin="round" stroke-width="3"/>
        </g>
      </g>
    </g>
  </g>
</svg>
