<?xml version="1.0" encoding="utf-8"?>
<!-- Generator: Adobe Illustrator 25.3.1, SVG Export Plug-In . SVG Version: 6.00 Build 0)  -->
<svg version="1.1" id="Warstwa_1" xmlns="http://www.w3.org/2000/svg" xmlns:xlink="http://www.w3.org/1999/xlink" x="0px" y="0px"
	 viewBox="0 0 5645.62 1914.17" style="enable-background:new 0 0 5645.62 1914.17;" xml:space="preserve">
<style type="text/css">
	.st0{fill:#FFFFFF;}
	.st1{fill:#4C8BCA;}
</style>
<g>
	<path class="st0" d="M5600.46,1089.08c-79.61-0.06-159.23-0.32-238.84,0.09c-9.82,0.05-15.45-3.08-21.08-10.84
		c-131.93-181.83-264.11-363.47-396.26-545.15c-2.7-3.72-5.48-7.38-8.8-11.85c-2.22,4.34-1.32,8.28-1.32,11.98
		c-0.05,152.14-0.05,304.28-0.05,456.43c0,30.3,0.02,60.59-0.02,90.89c-0.01,8.17-0.11,8.27-8.09,8.27
		c-89.62,0.03-179.24,0.03-268.86,0c-7.65,0-7.66-0.13-7.82-7.56c-0.03-1.66-0.01-3.33-0.01-4.99c0-334.25-0.01-668.49,0.03-1002.74
		c0-14.46-1.98-12.72,12.69-12.73c79.96-0.05,159.92,0.11,239.87-0.21c8.46-0.03,13.81,2.3,19.15,9.11
		c128,163.18,256.26,326.16,384.47,489.17c2.99,3.8,5.99,7.58,10.78,10.71c0-3.51,0-7.03,0-10.54c0-162.13-0.01-324.26,0.02-486.39
		c0-13.52-1.59-11.85,11.46-11.85c88.29-0.04,176.57-0.01,264.86-0.07c2.59,0,5.31,0.9,7.81-0.6
		C5600.46,403.16,5600.46,746.12,5600.46,1089.08z"/>
	<path class="st0" d="M1023.66,574.61c0-167.13-0.01-334.26,0.02-501.38c0-14.32-1.57-12.36,11.98-12.36
		c269.54-0.03,539.07-0.03,808.61-0.03c1,0,2,0,3,0c9.93-0.01,9.8-0.96,9.8,9.73c-0.02,74.24-0.01,148.49-0.01,222.73
		c0,2,0,4-0.04,5.99c-0.05,2.41-1.35,3.64-3.73,3.68c-3,0.05-6,0.05-8.99,0.05c-175.58,0-351.16-0.01-526.74,0.03
		c-14.06,0-12.05-1.93-12.08,12.13c-0.09,43.95-0.05,87.89-0.02,131.84c0.01,10.58-1.07,9.46,9.73,9.46
		c157.59,0.02,315.18-0.01,472.77,0.04c14.48,0,12.76-2.08,12.77,12.61c0.05,67.92,0.05,135.83,0,203.75
		c-0.01,12.32,1.37,10.7-10.46,10.7c-157.92,0.03-315.85,0.02-473.77,0.02c-11.05,0-11.06,0-11.06,11.11c0,47.28,0,94.55,0,141.83
		c0,2,0.1,4-0.01,5.99c-0.19,3.24,0.91,5.01,4.49,4.78c2.65-0.18,5.33-0.03,7.99-0.03c175.58,0,351.16-0.02,526.74,0.03
		c14.18,0,12.37-2,12.38,11.89c0.06,72.58,0.05,145.16,0.01,217.73c-0.01,13.83,1.31,11.94-11.41,11.94
		c-270.2,0.03-540.4,0.03-810.6-0.01c-12.84,0-11.33,2.05-11.33-11.88C1023.65,909.54,1023.66,742.08,1023.66,574.61z"/>
	<path class="st0" d="M2860.17,219.15c-2.76,3.03-6.56,4.53-9.98,6.51c-68.55,39.58-137.2,78.97-205.61,118.79
		c-6.47,3.77-10.53,3.58-16.58-0.71c-59.2-42.04-125.26-59.15-197.29-51.32c-123.87,13.47-224.53,107.67-247.42,230.49
		c-28.59,153.45,71.66,301.51,225.05,330.6c93.84,17.79,176.54-6.81,247.94-70.06c5.17-4.58,7.29-9.3,7.15-16.27
		c-0.45-21.96-0.14-43.94-0.18-65.91c-0.02-10.62,1.27-9.75-9.49-9.75c-56.64-0.02-113.27-0.01-169.91-0.01
		c-9.99,0-19.99-0.16-29.98,0.07c-4.31,0.1-6.23-1.39-5.69-5.72c0.04-0.33,0-0.67,0-1c0-71.24-0.02-142.49,0.02-213.73
		c0-7.02,0.16-7.08,7.14-7.18c6-0.09,11.99-0.02,17.99-0.02c142.26,0,284.52,0,426.77,0c2.33,0,4.7,0.28,6.99-0.05
		c5.65-0.81,6.57,2.06,6.49,6.9c-0.23,14.31-0.08,28.63-0.08,42.94c0,112.86-0.02,225.71,0.06,338.57c0,5.79-0.85,10.83-4.27,15.87
		c-83.42,122.76-197.24,201.31-342.97,230.27c-263.37,52.34-522.78-98.36-609.46-352.17c-23.55-68.96-32.26-139.94-26.61-212.43
		c16.45-211.36,153.39-384.64,340.01-456.92c75.42-29.21,153.71-40.77,234.15-34.08c137.84,11.48,254.32,68.24,349.49,168.59
		c1.83,1.93,3.59,3.92,5.33,5.94C2859.67,217.85,2859.86,218.53,2860.17,219.15z"/>
	<path class="st0" d="M80.34,574.78c0-166.79,0-333.58,0-500.37c0-2-0.03-4,0.01-5.99c0.15-7.43,0.16-7.55,7.81-7.55
		c90.62-0.03,181.24-0.03,271.86,0c7.51,0,7.52,0.15,7.67,7.81c0.04,2.33,0.01,4.66,0.01,6.99c0,253.02,0,506.03,0,759.05
		c0,12.53,0,12.53,12.72,12.53c172.24,0,344.49,0,516.73,0c11.36,0,11.36,0,11.37,11.76c0,72.58,0,145.15,0,217.73
		c0,2.33-0.14,4.67,0.03,6.99c0.28,3.78-1.09,5.6-5.1,5.22c-2.31-0.22-4.66-0.04-6.99-0.04c-267.86,0-535.72,0-803.58,0
		c-12.52,0-12.52,0-12.52-12.76C80.34,909.03,80.34,741.9,80.34,574.78z"/>
	<path class="st0" d="M3041.69,574.49c0-167.09-0.02-334.19,0.03-501.28c0-13.76-2.07-12.34,12.03-12.34
		c86.94-0.04,173.88-0.02,260.82-0.02c1,0,2-0.01,3,0c8.63,0.09,8.64,0.09,8.74,8.73c0.02,1.33,0,2.66,0,3.99
		c0,334.19,0.01,668.38-0.02,1002.57c0,15.24,1.48,12.72-12.57,12.73c-86.94,0.08-173.88,0.06-260.82,0.02
		c-12.61-0.01-11.18,1.46-11.19-11.12C3041.68,910.01,3041.69,742.25,3041.69,574.49z"/>
	<path class="st0" d="M3938.96,1106.3c-123.63-7.39-307.7-78.07-415.89-265.83c-99.75-173.1-89.72-383.92,4.81-538.55
		c3.06-0.3,4.42,2.35,6.23,4.01C3593.96,360.91,3653.7,416,3713.7,470.8c5.02,4.59,5.69,8.18,3.59,14.47
		c-50.94,152.95,34.04,312.19,181.92,360.13c6.95,2.25,9.05,5.69,9.83,12.46c5.55,47.91,11.54,95.77,17.34,143.66
		C3930.58,1036.18,3934.71,1070.86,3938.96,1106.3z"/>
	<path class="st0" d="M4035.84,1106.35c4.91-39.72,9.78-78.65,14.54-117.6c5-40.93,9.88-81.88,14.85-122.82
		c0.68-5.6,0.17-12.03,2.83-16.51c2.78-4.67,9.99-4.22,15.17-6.24c101.67-39.73,164.06-112.82,185.09-219.93
		c9.21-46.9,4.67-93.43-10.99-138.67c-1.87-5.39-1.28-8.71,3.14-12.74c60.47-55.24,120.74-110.71,181.06-166.12
		c1.45-1.33,2.96-2.59,4.48-3.91c79.52,122.82,111.86,322.52,23.92,504.26C4369.06,1014.54,4173.07,1097.8,4035.84,1106.35z"/>
	<path class="st0" d="M4416.01,256.38c-2.23,2.61-5.56,3.44-8.45,4.86c-71,34.88-142.04,69.68-213.07,104.49
		c-8.9,4.36-8.9,4.34-16.72-2.64c-43.95-39.22-95.12-63.51-153.53-70.58c-86.42-10.47-162.55,13.78-227.93,71.36
		c-0.75,0.66-1.61,1.25-2.19,2.04c-2.93,3.98-6.06,3.67-10.26,1.57c-24.07-12.06-48.28-23.83-72.45-35.7
		c-48.33-23.73-96.67-47.47-145-71.2c-2.38-1.17-4.75-2.34-8.51-4.2c31.4-42.32,67.79-78.78,109.59-109.9
		c80.38-59.83,170.58-94.77,270.32-103.91C4152.53,22.87,4327.63,131.81,4416.01,256.38z"/>
	<path class="st1" d="M3642.52,345.86c3.59,0.46,6.54,2.7,9.67,4.3c66.33,34.05,132.71,68.01,199.74,100.67
		c31.71,15.45,63.54,30.63,95.93,44.66c25.91,11.22,51.62,11.7,77.46,0.52c15.88-6.87,31.71-13.87,47.32-21.32
		c84.72-40.43,168.31-83.11,251.98-125.63c3.24-1.65,6.5-3.24,10.75-3.98c-1.37,1.39-2.67,2.86-4.11,4.17
		c-60.86,55.8-121.77,111.55-182.6,167.38c-23.55,21.61-46.47,43.92-70.5,64.98c-22.11,19.37-32.71,43.14-35.27,72.22
		c-3.23,36.73-8.75,73.26-13.21,109.88c-3.62,29.7-7.09,59.41-10.72,89.11c-3.67,30.02-7.5,60.02-11.2,90.04
		c-3.57,29.03-7.08,58.07-10.6,87.11c-2.92,24.09-5.81,48.18-8.84,73.35c-2.36-3.53-2.69-6.73-3.08-9.99
		c-5.88-49.17-11.85-98.34-17.71-147.52c-4.96-41.59-9.7-83.2-14.74-124.78c-4.96-40.91-10.15-81.8-15.28-122.69
		c-2.61-20.77-5.44-41.52-7.98-62.31c-2.29-18.71-10.85-33.82-24.72-46.48c-31.73-28.94-63.17-58.21-94.77-87.3
		c-39.69-36.52-79.43-72.99-119.16-109.47c-14.71-13.51-29.43-27.02-44.18-40.49c-1.71-1.56-3.67-2.86-5.51-4.27
		C3641.63,347.31,3642.08,346.58,3642.52,345.86z"/>
	<path class="st0" d="M2071.96,1460.51c55.73,1.53,102.6,21.58,135.44,67.95c58,81.9,26.47,207.59-85.35,241.37
		c-58.82,17.77-114.56,8.49-162.19-31.81c-42.49-35.96-58.88-83.33-52.72-138.39c7.89-70.47,64.63-127.84,139.87-137.37
		C2055.29,1461.21,2063.55,1460.6,2071.96,1460.51z M2150.06,1622.05c0.31-23.2-5.98-42.41-19.65-58.97
		c-33.31-40.34-98.62-36.69-126.08,6.97c-18.56,29.5-17.63,71.68,2.71,99.96c19.17,26.67,45.94,36.64,77.75,32.01
		c29.97-4.36,49.79-22.21,60.21-50.42C2148.71,1641.55,2150.45,1631.06,2150.06,1622.05z"/>
	<path class="st0" d="M2919.49,1595.77c1.45,96.42-50.83,163.64-130.76,178.63c-40.22,7.55-78.9,2.73-115.31-16.28
		c-56.59-29.55-88.06-89.36-82.58-152.96c6.2-71.93,62.39-132.63,140.02-142.82c33.47-4.39,66.02-1.06,96.52,13.33
		C2887.56,1504.06,2917.78,1552.45,2919.49,1595.77z M2761.51,1703c21.48-0.17,43.54-10.41,58.88-33.22
		c20.47-30.44,19.19-75.1-3.43-103.98c-20.15-25.73-47.14-34.95-78.91-29.03c-29.48,5.49-48.36,23.88-57.88,51.83
		c-5.57,16.37-6.06,33.25-2.51,50.22C2685.65,1676.9,2717.49,1703.04,2761.51,1703z"/>
	<path class="st0" d="M1290.2,1649.31c2.55,27.35,25.19,51.54,53.71,57c29.3,5.61,56.21,0.04,80.18-18.13
		c3.18-2.41,6.44-4.8,9.23-7.62c3.07-3.11,5.54-2.85,8.29,0.16c1.12,1.22,2.46,2.23,3.71,3.34c11.47,10.14,23.02,20.21,34.4,30.46
		c7.5,6.74,9.12,4.66,0.4,14.19c-17.18,18.78-37.69,32.66-62.05,40.29c-43.27,13.53-86.21,12.51-127.54-6.59
		c-52.23-24.13-79.93-66.57-86.25-122.97c-3.86-34.41,1.42-67.65,17.58-98.74c29.4-56.56,87.64-86.6,152.96-78.91
		c60.9,7.17,104.78,46.87,121.05,110.86c5.62,22.12,7.17,44.61,5.92,67.33c-0.47,8.54-0.45,8.62-9,8.62
		c-40.64,0.03-81.27,0.01-121.91,0.01c-23.65,0-47.3-0.04-70.95,0.04C1296.7,1648.65,1293.35,1647.89,1290.2,1649.31z
		 M1417.39,1593.86c-3.28-37.85-28.25-63.29-62.48-63.68c-35.24-0.4-62.24,25.64-66.12,63.76
		C1297.94,1594.91,1409.25,1594.85,1417.39,1593.86z"/>
	<path class="st0" d="M1653.37,1507.94c5.83-6.33,10.21-11.2,14.72-15.94c35.59-37.36,86.2-37.51,121.6-21.74
		c29.05,12.93,44.58,36.83,51.88,66.76c2.76,11.32,4.1,22.9,4.1,34.6c0,63.56,0.03,127.12,0.02,190.68c0,8.33-0.07,8.39-8.82,8.4
		c-22.98,0.03-45.96,0.03-68.93,0c-9.54-0.01-8.67,0.91-8.68-8.45c-0.01-52.58-0.01-105.15-0.01-157.73
		c0-9.67-0.66-19.27-3.24-28.66c-5.67-20.67-18.62-33.25-40.26-36.14c-28.16-3.76-56.65,8.17-61.79,46.91
		c-0.87,6.57-1,13.28-1.01,19.92c-0.08,50.58-0.04,101.16-0.04,151.74c0,2-0.24,4.03,0.04,5.98c0.83,5.66-2.01,6.56-6.95,6.52
		c-24.31-0.2-48.62-0.05-72.93-0.12c-6.68-0.02-6.78-0.18-6.8-7.45c-0.05-21.3-0.02-42.59-0.02-63.89c0-73.54,0-147.08,0-220.63
		c0-2,0.19-4.02-0.04-5.99c-0.54-4.66,1.1-6.43,6.06-6.39c24.97,0.21,49.95,0.18,74.93,0.02c4.31-0.03,5.87,1.39,5.77,5.71
		c-0.22,9.31-0.08,18.63-0.05,27.95C1652.93,1501.99,1653.14,1503.95,1653.37,1507.94z"/>
	<path class="st0" d="M880.62,1572.57c0-61.92,0-123.84,0-185.75c0-1.66,0.01-3.33,0-4.99c-0.04-9.09-0.62-8.89,8.51-8.86
		c16.32,0.05,32.65,0.01,48.97,0.01c8.33,0,16.66,0.13,24.98-0.06c3.75-0.09,5.62,1.05,5.3,5.04c-0.19,2.31-0.03,4.66-0.03,6.99
		c0,97.54,0,195.07,0,292.61c0,1.66-0.01,3.33,0,4.99c0.08,8.5,0.08,8.58,8.76,8.58c58.63,0.02,117.26,0.01,175.9,0.01
		c2,0,4-0.03,6,0.01c7.51,0.14,7.63,0.15,7.65,7.76c0.06,21.64,0.06,43.28,0,64.91c-0.02,6.73-0.14,6.85-7.25,6.86
		c-90.28,0.03-180.56,0.03-270.84,0c-7.85,0-7.93-0.12-7.93-8.37C880.61,1699.07,880.62,1635.82,880.62,1572.57z"/>
	<path class="st0" d="M2255.15,1466.44c28.65,0,56.94,0.13,85.23-0.12c5.06-0.04,5.95,2.93,7.13,6.48
		c7.97,23.95,15.99,47.89,24.01,71.82c13.18,39.36,26.36,78.73,39.6,118.08c0.47,1.4,0.18,3.28,2.65,4.36
		c2.28-2.78,2.84-6.4,3.95-9.69c20.55-60.72,41.07-121.45,61.58-182.18c3.57-10.58,1.93-8.67,12.28-8.71
		c26.29-0.12,52.58-0.04,78.85-0.04c1.44,3.63-0.78,6.12-1.78,8.68c-37.66,96.55-75.42,193.07-113.17,289.58
		c-3.23,8.25-3.25,8.27-11.98,8.28c-19.98,0.02-39.96,0.03-59.95,0c-11.98-0.02-9.62,0.91-13.51-9.02
		c-27.04-68.96-53.93-137.98-80.87-206.99c-10.63-27.23-21.27-54.46-31.93-81.68C2256.3,1472.85,2254.88,1470.56,2255.15,1466.44z"
		/>
	<path class="st0" d="M124.32,1717.59c0,15.72,0.04,30.69-0.02,45.65c-0.03,7.33-0.12,7.4-7.76,7.44
		c-10.32,0.07-20.65-0.1-30.97,0.07c-3.79,0.06-5.59-1.13-5.18-5.11c0.2-1.98,0.03-3.99,0.03-5.99c0-130.77-0.02-261.54,0.03-392.31
		c0-12.51-1.89-11.02,11.07-11.13c7.99-0.07,15.98-0.04,23.98,0c8.75,0.04,8.79,0.07,8.82,8.45c0.04,11.65,0.01,23.29,0.01,34.94
		c0,41.26,0,82.52,0,123.78c0,3.17,0,6.34,0,11.83c4.33-5.53,7.07-9.12,9.9-12.64c18.63-23.13,41.22-40.56,70.54-47.83
		c61.85-15.35,127.17,14.66,155.33,73.15c24.37,50.63,24.21,102.63-0.67,153c-31.34,63.47-105.93,92.31-170.12,67.61
		c-23.66-9.1-42.36-24.63-58.02-44.21C129.43,1721.99,128.36,1718.6,124.32,1717.59z M332.27,1624.18
		c0.35-10.74-1.01-22.31-4.04-33.58c-10.45-38.84-33.68-66.37-73.25-76.85c-38.59-10.22-72.38,0.64-100.43,28.64
		c-18.3,18.26-28.4,40.85-31.09,66.44c-4.08,38.89,5.94,73.36,34.95,100.65c54.54,51.29,146.25,31.31,168.27-44.99
		C330.38,1651.62,332.37,1638.55,332.27,1624.18z"/>
	<path class="st0" d="M569.48,1721.36c10-25.86,19.37-50,28.68-74.16c20.78-53.93,41.47-107.9,62.34-161.8
		c3.5-9.05,1.34-8.47,11.8-8.49c12.27-0.02,24.54,0,36.82,0c0.51,4.08-1.51,6.9-2.73,9.9c-39.48,97.26-78.97,194.52-118.54,291.75
		c-6.4,15.72-13.83,30.91-23.43,45.02c-20.5,30.12-49.09,42.36-84.96,39.59c-16.11-1.24-31.5-4.91-46.23-11.4
		c-6.58-2.9-6.62-3.01-3.99-9.27c3.85-9.17,7.83-18.28,11.69-27.26c3.3-1.03,5.36,1.12,7.64,2.13c15.03,6.61,30.8,8.21,46.92,6.81
		c11.03-0.96,20.28-6.07,27.95-14c10.36-10.71,16.72-23.88,22.87-37.2c1.85-4.01-0.34-6.99-1.81-10.23
		c-15.02-32.95-30.03-65.91-45.08-98.85c-26.92-58.93-53.88-117.84-80.76-176.79c-1.34-2.94-3.32-5.74-3.42-10.18
		c14.67,0,29.16,0.05,43.66-0.04c2.82-0.02,4.23,1.36,5.19,3.7c0.76,1.84,1.56,3.67,2.36,5.5c32.68,74.91,65.36,149.82,98.06,224.72
		C565.8,1713.81,567.3,1716.76,569.48,1721.36z"/>
</g>
</svg>
