<svg xmlns="http://www.w3.org/2000/svg" width="67.303" height="102.831" viewBox="0 0 67.303 102.831">
  <g id="logo_esport_gra" transform="translate(-537.851 -297.943)">
    <g id="Group_55" data-name="Group 55">
      <path id="Path_16" data-name="Path 16" d="M600.944,326.383a29.459,29.459,0,0,0-58.883,0h0l-.053,42.9a14.8,14.8,0,0,1,11.229,13.775h36.532A14.8,14.8,0,0,1,601,369.288l-.054-42.9Z" fill="#fc40d7"/>
    </g>
    <path id="Path_17" data-name="Path 17" d="M571.893,355.043a27.2,27.2,0,0,1-26.342-20.488v21.421H597.5v-19A27.2,27.2,0,0,1,571.893,355.043Z" fill="#fff"/>
    <g id="Group_56" data-name="Group 56">
      <path id="Path_18" data-name="Path 18" d="M548.213,358.649h5.639v1.857h-3.459v1.911h2.934v1.858h-2.934v1.911h3.486v1.857h-5.666Z" fill="#fff"/>
      <path id="Path_19" data-name="Path 19" d="M555.558,366.764v-1.493h2.181v.915h2.409v-1.911h-3.311L555.558,363v-3.069l1.279-1.278h4.2l1.279,1.292v1.48h-2.167v-.915h-2.409v1.911h3.311l1.265,1.279v3.055l-1.279,1.292h-4.2Z" fill="#fff"/>
      <path id="Path_20" data-name="Path 20" d="M564.2,358.649h5.3l1.278,1.278v3.634L569.5,364.84h-3.123v3.2H564.2ZM568.6,363v-2.49h-2.221V363Z" fill="#fff"/>
      <path id="Path_21" data-name="Path 21" d="M571.986,366.764v-6.85l1.265-1.265h4.2l1.293,1.292v6.81l-1.293,1.292h-4.185Zm4.576-.578v-5.68h-2.409v5.68Z" fill="#fff"/>
      <path id="Path_22" data-name="Path 22" d="M580.624,358.649h5.289l1.292,1.278V363l-1.292,1.211,1.736,3.836h-2.5l-1.736-3.836h-.619v3.836h-2.167Zm4.4,3.768v-1.911h-2.234v1.911Z" fill="#fff"/>
      <path id="Path_23" data-name="Path 23" d="M594.793,358.649v1.857h-2.046v7.537H590.58v-7.537h-2.059v-1.857Z" fill="#fff"/>
    </g>
    <g id="Group_57" data-name="Group 57">
      <path id="Path_24" data-name="Path 24" d="M559.063,378.634v-6.851l1.265-1.265h4.213l1.279,1.278v1.925h-2.181v-1.346h-2.395v5.68h2.395V376.83h-1.076v-1.857h3.257v3.647l-1.292,1.292h-4.186Z" fill="#fff"/>
      <path id="Path_25" data-name="Path 25" d="M567.7,370.518h5.289l1.292,1.278v3.069l-1.292,1.211,1.736,3.836h-2.5l-1.736-3.836h-.619v3.836H567.7Zm4.4,3.768v-1.911h-2.234v1.911Z" fill="#fff"/>
      <path id="Path_26" data-name="Path 26" d="M578.128,370.518h2.867l2.947,9.394h-2.288l-.538-1.844h-3.109l-.538,1.844h-2.275Zm2.423,5.693-.983-3.3-1,3.3Z" fill="#fff"/>
    </g>
    <g id="Group_58" data-name="Group 58">
      <rect id="Rectangle_67" data-name="Rectangle 67" width="46.58" height="10.083" transform="translate(548.213 385.353)" fill="#fc40d7"/>
    </g>
    <g id="Group_59" data-name="Group 59">
      <path id="Path_27" data-name="Path 27" d="M553.765,391.847h-.572v-.95h.737l.179-1.006h-.661v-.95h.826l.172-.95h1.109l-.165.95h.909l.172-.95h1.115l-.172.95h.428v.95h-.593l-.179,1.006h.516v.95h-.681l-.165.951h-1.116l.165-.951h-.909l-.172.951h-1.116Zm2.19-.95.185-1.006h-.915l-.18,1.006Z" fill="#fff"/>
      <path id="Path_28" data-name="Path 28" d="M558.633,387.991h2.885v.95h-1.776v.978h1.467v.95h-1.467V392.8h-1.109Z" fill="#fff"/>
      <path id="Path_29" data-name="Path 29" d="M562.138,392.143v-3.505l.647-.647h2.149l.661.661v3.484l-.661.662h-2.141Zm2.342-.3v-2.906h-1.233v2.906Z" fill="#fff"/>
      <path id="Path_30" data-name="Path 30" d="M566.421,392.143v-3.505l.647-.647h2.149l.661.661v3.484l-.661.662h-2.142Zm2.341-.3v-2.906h-1.233v2.906Z" fill="#fff"/>
      <path id="Path_31" data-name="Path 31" d="M573.672,387.991v.95h-1.047V392.8h-1.108v-3.857h-1.054v-.95Z" fill="#fff"/>
      <path id="Path_32" data-name="Path 32" d="M574.4,387.991h2.8l.654.654v1.329l-.461.42.461.42v1.322l-.654.662h-2.8Zm2.341,1.928v-.978H575.51v.978Zm0,1.928v-.978H575.51v.978Z" fill="#fff"/>
      <path id="Path_33" data-name="Path 33" d="M579.8,387.991h1.467l1.508,4.807H581.6l-.276-.944h-1.591l-.275.944H578.3Zm1.24,2.913-.5-1.687-.509,1.687Z" fill="#fff"/>
      <path id="Path_34" data-name="Path 34" d="M586.191,391.847v.951h-2.9v-4.807h1.11v3.856Z" fill="#fff"/>
      <path id="Path_35" data-name="Path 35" d="M589.812,391.847v.951h-2.9v-4.807h1.108v3.856Z" fill="#fff"/>
    </g>
    <path id="Path_36" data-name="Path 36" d="M601,386.441l1.077,2.889,3.08.131-2.415,1.917.827,2.97-2.569-1.7-2.569,1.7.827-2.97-2.415-1.917,3.08-.131Z" fill="#fff"/>
    <path id="Path_37" data-name="Path 37" d="M542.008,386.441l1.077,2.889,3.08.131-2.415,1.917.827,2.97-2.569-1.7-2.569,1.7.827-2.97-2.415-1.917,3.08-.131Z" fill="#fff"/>
    <rect id="Rectangle_68" data-name="Rectangle 68" width="1.189" height="58.99" transform="translate(542.008 383.658) rotate(-90)" fill="#fff"/>
    <rect id="Rectangle_69" data-name="Rectangle 69" width="1.189" height="58.99" transform="translate(542.008 398.401) rotate(-90)" fill="#fff"/>
    <rect id="Rectangle_70" data-name="Rectangle 70" width="1.189" height="36.531" transform="translate(553.237 400.774) rotate(-90)" fill="#fff"/>
    <g id="Group_74" data-name="Group 74">
      <g id="Group_60" data-name="Group 60">
        <path id="Path_38" data-name="Path 38" d="M571.5,353.341a25.678,25.678,0,1,1,25.678-25.678A25.707,25.707,0,0,1,571.5,353.341Zm0-50.067a24.389,24.389,0,1,0,24.388,24.389A24.416,24.416,0,0,0,571.5,303.274Z" fill="#fff"/>
      </g>
      <g id="Group_61" data-name="Group 61">
        <path id="Path_39" data-name="Path 39" d="M571.226,340.869a46.437,46.437,0,0,1-5.718-.343l-.358-.045-.149-.328c-.14-.308-3.43-7.572-3.794-10.978l-.036-.334.254-.221c.266-.231,6.549-5.679,9.709-7.208l.332-.16.306.2c.274.182,6.735,4.487,9.318,6.627l.309.256-.093.39c-.085.356-2.093,8.749-3.857,11.5l-.159.249-.293.042A44.36,44.36,0,0,1,571.226,340.869Zm-5.2-1.58a48.223,48.223,0,0,0,10.487,0c1.409-2.468,3.034-8.819,3.44-10.462-2.366-1.894-7.3-5.22-8.584-6.084-2.741,1.465-7.654,5.616-8.838,6.63C562.982,332.291,565.4,337.878,566.028,339.289Z" fill="#fff"/>
      </g>
      <g id="Group_62" data-name="Group 62">
        <path id="Path_40" data-name="Path 40" d="M561.614,329.708l-8.311-3.245-.084-.316a20.816,20.816,0,0,1,.224-10.527l.036-.112.073-.093c.15-.188,3.715-4.637,8.252-6.621l.135-.06.147.006a23.327,23.327,0,0,1,8.957,2.708l.325.167.691,10.335-1.288.086-.641-9.6a22.8,22.8,0,0,0-7.949-2.394,24.193,24.193,0,0,0-7.545,6.09,19.764,19.764,0,0,0-.243,9.376l7.69,3Z" fill="#fff"/>
      </g>
      <g id="Group_63" data-name="Group 63">
        <path id="Path_41" data-name="Path 41" d="M552.378,316.524a11.49,11.49,0,0,1-2.983-.315l.366-1.237a15.58,15.58,0,0,0,4.243.2l.107,1.285C554.051,316.464,553.312,316.524,552.378,316.524Z" fill="#fff"/>
      </g>
      <g id="Group_64" data-name="Group 64">
        <path id="Path_42" data-name="Path 42" d="M562.706,309.428l-1.287-.087a21.169,21.169,0,0,1,.3-2.262,7.962,7.962,0,0,1,1.374-3.585l.982.837C563.162,305.4,562.778,308.374,562.706,309.428Z" fill="#fff"/>
      </g>
      <g id="Group_65" data-name="Group 65">
        <path id="Path_43" data-name="Path 43" d="M580.844,329.2l-.331-1.246a61.8,61.8,0,0,0,8.02-3.579,26.983,26.983,0,0,0-.719-9.113,29.988,29.988,0,0,0-8.647-6.083,37.98,37.98,0,0,0-8.1,3.4l-.64-1.12a37.894,37.894,0,0,1,8.66-3.586l.2-.045.189.079a30.627,30.627,0,0,1,9.382,6.584l.107.113.044.148a27.581,27.581,0,0,1,.761,10.119l-.042.335-.3.156C589.185,325.494,583.351,328.537,580.844,329.2Z" fill="#fff"/>
      </g>
      <g id="Group_66" data-name="Group 66">
        <path id="Path_44" data-name="Path 44" d="M579.875,308.528l-1.289-.042a10.792,10.792,0,0,0-1.507-4.788l1.136-.611A11.731,11.731,0,0,1,579.875,308.528Z" fill="#fff"/>
      </g>
      <g id="Group_67" data-name="Group 67">
        <path id="Path_45" data-name="Path 45" d="M592.941,315.572a9.663,9.663,0,0,0-4.33-.028l-.436-1.214a10.527,10.527,0,0,1,4.992-.028Z" fill="#fff"/>
      </g>
      <g id="Group_68" data-name="Group 68">
        <path id="Path_46" data-name="Path 46" d="M595.436,333.121c-1.8-3.323-6.689-7.806-6.738-7.851l.87-.952c.207.189,5.1,4.676,7,8.188Z" fill="#fff"/>
      </g>
      <g id="Group_69" data-name="Group 69">
        <path id="Path_47" data-name="Path 47" d="M582.01,345.447l-.231-.193a63.56,63.56,0,0,1-5.368-4.954l.989-.828a58.564,58.564,0,0,0,4.975,4.6,48.2,48.2,0,0,0,9.437-2.743l.518,1.181a48.658,48.658,0,0,1-10.023,2.886Z" fill="#fff"/>
      </g>
      <g id="Group_70" data-name="Group 70">
        <path id="Path_48" data-name="Path 48" d="M578.665,352.22l-.961-.86c1.955-2.185,3.873-6.8,3.892-6.847l1.192.492C582.707,345.2,580.768,349.87,578.665,352.22Z" fill="#fff"/>
      </g>
      <g id="Group_71" data-name="Group 71">
        <path id="Path_49" data-name="Path 49" d="M565.725,352.61a19.329,19.329,0,0,1-5.1-7.138l-.136-.367.263-.291a59.764,59.764,0,0,0,4.291-5.274l1.09.691a54.406,54.406,0,0,1-4.158,5.151,18.544,18.544,0,0,0,4.581,6.242Z" fill="#fff"/>
      </g>
      <g id="Group_72" data-name="Group 72">
        <path id="Path_50" data-name="Path 50" d="M561.2,345.891a36.753,36.753,0,0,1-9.22-1.7l.434-1.215a36,36,0,0,0,8.846,1.628Z" fill="#fff"/>
      </g>
      <g id="Group_73" data-name="Group 73">
        <path id="Path_51" data-name="Path 51" d="M547.625,333.525l-1.086-.7a29.421,29.421,0,0,1,6.939-7.38l.729,1.064A28.622,28.622,0,0,0,547.625,333.525Z" fill="#fff"/>
      </g>
    </g>
  </g>
</svg>
